<?xml version="1.0" encoding="UTF-8"?>
<svg id="Layer_1" data-name="Layer 1" xmlns="http://www.w3.org/2000/svg" version="1.1" viewBox="0 0 1080 1080">
  <defs>
    <style>
      .cls-1 {
        font-family: Gliker-Regular, Gliker;
        font-size: 54.5px;
        letter-spacing: 0em;
      }

      .cls-1, .cls-2 {
        fill: #fff;
      }

      .cls-2 {
        stroke-width: 0px;
      }
    </style>
  </defs>
  <path class="cls-2" d="M557.2,885.4c-88.4,0-171.5-34.4-234.1-97-62.5-62.5-97-145.6-97-234.1s34.4-171.5,97-234.1c62.5-62.5,145.6-97,234.1-97s171.5,34.4,234.1,97c62.5,62.5,97,145.6,97,234.1s-34.4,171.5-97,234.1c-62.5,62.5-145.6,97-234.1,97ZM557.2,234.3c-85.5,0-165.9,33.3-226.3,93.7-60.5,60.5-93.7,140.8-93.7,226.3s33.3,165.9,93.7,226.3c60.5,60.5,140.8,93.7,226.3,93.7s165.9-33.3,226.3-93.7c60.5-60.5,93.7-140.8,93.7-226.3s-33.3-165.9-93.7-226.3c-60.5-60.5-140.8-93.7-226.3-93.7Z"/>
  <g>
    <path class="cls-2" d="M323.9,553.3c-.2,2.7-.5,4.6-.8,5.6-.4,1.3-1.1,1.9-2.3,1.8-8.5-.7-18.1-1.6-28.9-2.8-10.7-1.2-18.7-2.2-23.8-3-.6,0-1-.3-1.3-.7-.3-.4-.5-.8-.5-1.3,0-5.9.3-12.2.9-18.9.7-8.1,2.4-14.3,5.4-18.6,2.9-4.2,6.8-6.2,11.5-5.8,4.2.3,7.8,2,10.7,5,3,3,5.1,7.1,6.5,12.4,1.3,5.2,1.7,11.1,1,17.7,0,.6.3,1.2.8,1.6.5.4,1.3.6,2.2.7,2.4.2,5.6,0,9.5-.5,3.9-.5,6.2-.7,6.9-.7.6,0,1.1.2,1.5.7.4.4.6.9.7,1.6,0,1,0,2.8-.2,5.2ZM294.4,542.1c.5-6.3-.2-11.2-2.2-14.8-1.9-3.6-4.4-5.5-7.5-5.7-4.6-.4-7.3,4-8,13-.2,2.3-.3,4.5-.3,6.5,0,1.9.9,3,2.6,3.3,3.5.7,7.7,1.1,12.4,1,1.8,0,2.8-1.1,2.9-3.4Z"/>
    <path class="cls-2" d="M330.3,502.5c-.5,1.7-1,3.1-1.6,4.2-.2.5-.6.8-1,1-.5.2-1,.2-1.6,0-7.8-2.3-13.2-3.9-16.1-4.8-2.9-.9-6.4-2-10.5-3.3-4.1-1.3-8-2.7-11.6-4.1-1.1-.5-1.6-1.2-1.4-2.3,0-1.1.4-2.5.9-4.3.6-2.1,1.2-3.6,1.6-4.4.3-.6.7-1,1.2-1.2.5-.2,1-.2,1.4.1,2.1,1.3,3.8,2.1,5.1,2.5.8.2,1.3.2,1.6-.2.2-.4,0-.9-.7-1.4-4.9-4-6.4-9.2-4.5-15.6.3-1.2.9-2.4,1.5-3.7.7-1.2,1.4-2.2,2-2.8.8-.9,1.8-1.2,2.9-.9,2.8.8,5.8,1.8,9,2.9,1,.3,1.4.9,1.4,1.7,0,.8-.4,1.4-1.2,1.8-2.8,1.8-4.7,4.6-5.8,8.2-.9,3-.4,6,1.4,8.9,1.8,2.9,4.8,4.9,8.8,6.1,1.8.5,3.7,1,5.8,1.5,2.1.5,4.3,1,6.8,1.5,2.5.5,3.8.8,4,.8.6.2,1.1.5,1.4.9s.4,1,.3,1.5c-.2,1.2-.6,2.9-1.2,5.1Z"/>
    <path class="cls-2" d="M351,448.6c-3.3,6.5-7.7,10.7-13.2,12.7-5.6,2-11.6,1.3-18.2-2-4.1-2.1-7.3-4.7-9.5-8-2.2-3.2-3.3-6.7-3.4-10.3,0-3.6.8-7.3,2.7-11,2.6-5.3,5.9-8.9,9.8-10.8,3.9-1.9,8-1.8,12.4.4,3.5,1.8,5.7,4.6,6.6,8.4.9,3.9.4,7.7-1.5,11.4-2.2,4.5-4.8,7.7-7.5,9.6-.8.5-1.1,1-.9,1.5.2.6.8.8,1.7.6,2.4.2,4.9-.6,7.5-2.3,2.5-1.7,4.4-3.8,5.7-6.3,1-1.9,1.6-4.1,1.8-6.6.2-2.5,0-4.8-.5-6.8-.4-.9-.4-1.6.2-2.1.5-.5,1.3-.5,2.2,0,1.2.5,3.5,1.5,6.7,3,.9.5,1.4,1.1,1.5,1.9.3,2.3,0,4.9-.7,7.9-.8,3-1.9,6-3.3,8.7ZM329.6,439.5c1-2.1,1.4-4,.9-5.7-.4-1.7-1.6-3.1-3.4-4-4-2-7.2-.6-9.7,4.1-1.2,2.4-1.6,4.8-1.1,7.4.5,2.6,1.8,4.4,4.1,5.5.9.5,2,.3,3.2-.4,1.2-.7,2.3-1.7,3.3-3,1-1.3,1.8-2.6,2.5-3.9Z"/>
    <path class="cls-2" d="M364.2,422.8c-1.4,1.5-2.4,2.6-3.2,3.2-.4.3-.9.4-1.4.4s-1-.3-1.5-.7c-7.7-6.8-13.4-11.9-17.2-15.5-3.8-3.5-7.8-7.5-12-11.8-.8-.9-.9-1.8-.3-2.7.5-.9,1.4-2,2.5-3.3,1.3-1.5,2.3-2.5,3.1-3,1.1-.8,2-.8,2.7,0,.3.3.6.8,1,1.3.4.5.8,1,1,1.3.3.3.5.6.8.9.7.6,1.2.8,1.6.6s.3-.7,0-1.6c-1-2.4-1.3-4.8-1-7.3.4-2.5,1.3-4.6,2.8-6.3,1.7-1.9,3.6-3.2,5.7-4,2.2-.8,4.4-.8,6.8-.2,2.5.8,3.2,0,2.2-2.4-.8-2.3-.9-4.6-.4-7,.5-2.4,1.7-4.6,3.5-6.6,2.8-3.2,6.5-4.7,11.2-4.4,4.6.2,9.5,2.4,14.5,6.5,8.3,6.8,14,11.5,16.9,14.1,1,.9,1.1,1.8.5,3-.7,1.1-1.4,2.1-2.3,3.1-1.6,1.8-2.8,3-3.6,3.6-1.2.8-2.1.8-3,0-4.7-4.7-9.4-9.1-14.3-13.3-2.8-2.4-5.5-3.8-8.1-4.1-2.6-.3-4.7.4-6.3,2.2-1.5,1.7-1.8,3.8-1.1,6.5.7,2.6,2.6,5.3,5.5,7.8,5.1,4.5,9.9,8.5,14.4,12,1,.7,1.2,1.7.5,3-.6,1-1.4,2.1-2.4,3.2-1.6,1.8-2.8,3-3.7,3.7-.5.3-1,.5-1.5.5-.5,0-1-.2-1.5-.6-5.3-5.2-10.1-9.6-14.3-13.2-2.8-2.4-5.5-3.8-8.1-4.1-2.6-.3-4.7.4-6.3,2.2-1.5,1.7-1.8,3.8-1.1,6.5.8,2.6,2.6,5.3,5.5,8,4.1,3.9,8.8,8,14.1,12.2.5.4.7.8.8,1.3,0,.5,0,1-.3,1.5-.6,1-1.5,2.2-2.6,3.4Z"/>
    <path class="cls-2" d="M387.5,331.1c-1.6,1.2-3.2,1.7-4.9,1.7-1.7,0-3-.8-4-2.1-1-1.4-1.3-2.9-1-4.5.4-1.7,1.3-3.1,2.9-4.3,1.6-1.2,3.3-1.8,5-1.7,1.7,0,3.1.8,4.1,2.2,1,1.3,1.3,2.8.9,4.5-.4,1.7-1.4,3.1-3,4.3ZM417.1,370.1c-1.7,1.3-3,2.1-3.9,2.5-.5.2-1,.3-1.5.2s-1-.4-1.3-.9c-10.4-13.8-18.2-24.6-23.3-32.4-.4-.5-.5-1-.5-1.4,0-.4.3-.8.7-1.2.7-.8,1.7-1.7,2.9-2.6,1.1-.8,2.1-1.4,3-1.9.5-.2,1-.3,1.4-.3.4,0,.8.4,1.2.9,6.1,7.1,14.4,17.5,24.8,31.4.7,1,.7,1.9,0,2.9-.9.9-2,1.9-3.3,2.9Z"/>
    <path class="cls-2" d="M443.2,353.3c-5.3,2.8-10.2,3.3-14.6,1.4-4.4-1.9-8.2-5.9-11.5-12-2.6-4.9-5.6-11.2-8.9-19-.5-1.2-.3-2.2.6-3,.9-.7,2-1.5,3.4-2.2,1.8-1,3.4-1.7,4.7-2.1.6-.2,1.1-.2,1.6,0,.5.2.9.5,1.1,1.1,3.2,8.6,5.5,14.4,7.1,17.2,4.4,8.2,9.7,10.6,16,7.2,2.6-1.4,4.1-3.7,4.4-6.8.3-3.2-.6-6.7-2.6-10.5-2.9-5.5-6.2-10.5-9.8-15-.4-.5-.5-1-.4-1.5.1-.5.4-1,.8-1.4,1.3-1,2.7-1.8,4.1-2.5,1.1-.6,2.5-1.2,4.3-1.9.5-.2,1-.1,1.5,0,.5.2,1,.6,1.3,1.1,3.2,5.1,6,9.6,8.3,13.6,2.3,4,4.3,7.5,6,10.6,1.6,3.1,3.5,6.6,5.6,10.5.6,1.1.4,2-.4,2.7-.8.7-2,1.4-3.4,2.2-.9.5-2.3,1.1-4.3,1.9-.6.2-1.1.1-1.6,0-.5-.2-.8-.6-1-1.1-.3-.9-.9-2.2-1.7-3.7-.4-.8-.8-1.1-1.1-1s-.5.6-.6,1.5c-.3,3.1-1.2,5.6-2.6,7.7-1.4,2.1-3.5,3.8-6.1,5.3Z"/>
    <path class="cls-2" d="M477.8,335.4c-2,.5-3.5.7-4.5.7-.5,0-1-.2-1.4-.5-.4-.3-.7-.8-.8-1.4-2.3-10-4-17.5-5-22.6-1-5.1-2-10.6-2.9-16.5-.1-1.2.3-2,1.3-2.4,1-.4,2.3-.9,4-1.2,1.9-.4,3.3-.7,4.3-.7,1.3,0,2,.5,2.1,1.6,0,.4,0,1,0,1.7,0,.7,0,1.3,0,1.7,0,.4,0,.8.1,1.2.2.9.5,1.4.9,1.4.4,0,.7-.4.9-1.4.6-2.5,1.7-4.7,3.4-6.5,1.7-1.8,3.7-3,6-3.5,2.5-.6,4.8-.5,7,.1,2.2.6,4.1,1.9,5.7,3.8,1.5,2.1,2.6,1.9,3.2-.7.7-2.3,1.9-4.3,3.7-5.9,1.8-1.6,4-2.8,6.7-3.4,4.1-1,8,0,11.7,2.9,3.6,2.9,6.3,7.5,8,13.7,2.8,10.4,4.7,17.5,5.6,21.3.3,1.3-.1,2.2-1.3,2.7-1.2.5-2.4.9-3.7,1.2-2.3.5-4,.8-5.1.8-1.4,0-2.2-.6-2.4-1.8-1.1-6.5-2.4-12.9-3.9-19.1-.9-3.6-2.3-6.3-4.2-8.1-1.9-1.8-4.1-2.4-6.4-1.8-2.1.5-3.7,2-4.6,4.6-.9,2.6-1,5.8-.1,9.5,1.5,6.7,3.1,12.7,4.8,18.1.4,1.2,0,2.1-1.4,2.7-1.1.5-2.4.9-3.8,1.2-2.3.5-4,.8-5.1.9-.6,0-1.1-.2-1.5-.4-.4-.3-.7-.7-.8-1.3-1.3-7.3-2.6-13.7-4-19.1-.9-3.6-2.3-6.3-4.2-8.1-1.9-1.8-4.1-2.4-6.4-1.8-2.2.5-3.7,2-4.6,4.6-.9,2.6-1,5.8-.2,9.7,1.1,5.6,2.5,11.6,4.4,18.1.2.6.1,1.1-.1,1.6-.2.4-.6.8-1.1,1.1-1.1.5-2.5.9-4.1,1.3Z"/>
    <path class="cls-2" d="M581.8,324.4c-2.3-.3-4.1-.6-5.3-.9-1.2-.4-1.7-1.3-1.6-2.5,1.2-9.9,2.6-20.7,4.4-32.2,0-.5,0-1-.3-1.3s-.6-.6-1-.6l-3.4-.4c-.6,0-1.1-.3-1.5-.8-.4-.5-.5-1-.4-1.6l.4-3.2c0-.6.3-1.1.8-1.4.5-.4,1-.5,1.6-.5l4,.5c.4,0,.8,0,1.1-.2.3-.2.5-.5.5-.9-.1-2.4.3-4.6,1.1-6.4.9-1.8,2-3.2,3.6-4.1,1.5-.9,3.3-1.6,5.2-1.9,1.9-.3,4-.4,6.3-.1,3.2.4,6,1.3,8.5,2.9.8.4,1.2,1.2,1,2.3,0,1.2-.3,3.3-.7,6.2-.1,1.1-.6,1.8-1.4,2-.8.2-1.5,0-2.1-.9-.5-.7-1.3-1.3-2.3-1.9-1-.5-1.9-.9-2.8-1-1.4-.2-2.5,0-3.5.7-.9.7-1.4,1.5-1.5,2.6,0,.8.4,1.4,1.3,2,.9.6,2,.9,3.4,1.1,1.7.2,3.8.3,6.1.3.7,0,1.2.2,1.6.7.4.5.6,1,.5,1.7,0,1.3-.2,2.6-.5,4,0,.6-.3,1.1-.8,1.5-.5.4-1,.5-1.6.4-4.7-1-7.8-1.6-9.6-1.8-.5,0-.9,0-1.2.4-.3.3-.5.7-.6,1.3-.3,1.4-.5,3.6-.8,6.5-.3,2.9-.5,5-.6,6.2-.1,1.2-.3,3.2-.4,5.8-.1,2.7-.2,4.4-.3,5.3,0,.9-.1,2.4-.2,4.7,0,2.3-.1,3.6-.2,4,0,1.2-.7,1.9-2,2-1.3,0-2.9,0-5.1-.3Z"/>
    <path class="cls-2" d="M621.5,332.5c-5.7-1.8-9.5-4.9-11.2-9.4-1.7-4.5-1.5-10,.5-16.6,1.6-5.3,4.1-11.8,7.3-19.7.5-1.2,1.3-1.8,2.6-1.7,1.2.1,2.5.4,3.9.9,1.9.6,3.6,1.2,4.8,1.8.5.3.9.7,1.1,1.2.2.5.2,1,0,1.5-3.9,8.3-6.4,14-7.3,17.1-2.8,8.9-.7,14.4,6.1,16.5,2.8.9,5.5.3,7.9-1.7,2.5-2,4.4-5.1,5.7-9.3,1.9-5.9,3.1-11.8,3.9-17.5,0-.6.3-1.1.8-1.4.5-.3,1-.4,1.5-.4,1.6.3,3.2.7,4.7,1.1,1.2.4,2.6.9,4.3,1.7.5.2.8.6,1,1.1.2.5.3,1.1.2,1.7-1.4,5.8-2.6,11-3.8,15.4-1.2,4.5-2.3,8.4-3.3,11.7-1,3.3-2.2,7.1-3.6,11.4-.4,1.1-1.1,1.7-2.2,1.6-1.1-.1-2.4-.4-4-.9-1-.3-2.4-.9-4.4-1.7-.5-.3-.9-.7-1.1-1.2-.2-.5-.2-1,.1-1.5.4-.9.9-2.2,1.4-3.8.3-.9.2-1.4,0-1.5-.3-.2-.8,0-1.5.7-2.4,1.9-4.8,3.1-7.3,3.5-2.5.4-5.2.2-8.1-.7Z"/>
    <path class="cls-2" d="M658.8,345.9c-1.7-1-3-1.8-3.9-2.6-.4-.3-.7-.8-.8-1.3,0-.5,0-1.1.4-1.6,5.2-9,9.1-15.7,11.8-20.1,2.7-4.4,5.8-9,9.2-13.8.8-1,1.6-1.3,2.6-.9,1,.3,2.2.9,3.7,1.8,1.4.8,2.7,1.7,3.8,2.5.5.4.7.8.8,1.3,0,.5,0,1-.5,1.4-1,.9-1.9,2-2.7,3.1-.5.8-.6,1.3-.4,1.6.2.2.8.1,1.6-.3,2.9-1.3,5.6-1.9,8.1-1.8,2.5,0,5,.8,7.4,2.3,4.3,2.5,6.9,6.2,7.8,11.2.9,5-.2,10.4-3.3,16.3-3.3,6.6-6.7,12.7-10,18.5-.6,1.1-1.6,1.5-2.9,1.1-1.1-.4-2.4-1-3.8-1.8-1.6-.9-3-1.8-4.1-2.7-1-1-1.2-1.9-.6-2.9,3.5-4.9,6.7-10,9.6-15.3,2.1-3.8,3-7.3,2.5-10.5-.4-3.2-2.1-5.6-4.9-7.2-2.8-1.6-5.7-1.8-8.8-.5-3.1,1.3-5.7,3.8-7.8,7.6-3.5,6.4-6.2,11.8-8.1,16.1-.2.6-.6.9-1.1,1.1-.5.2-1.1.1-1.6,0-1.1-.4-2.5-1.1-4.3-2.1Z"/>
    <path class="cls-2" d="M713.9,384.2c-5.2-4.6-8-9.8-8.4-15.5-.4-5.7,1.7-11.3,6.4-16.5,4.7-5.3,10-8.1,15.8-8.4,5.8-.3,11.3,1.8,16.4,6.3,1.8,1.6,3.5,3.4,5.2,5.4,1.7,2,2.9,3.7,3.6,5.1.3.5.4,1.1.3,1.7,0,.6-.3,1.1-.7,1.5-.2.2-1,1-2.3,2.3-1.3,1.4-2.4,2.4-3.1,3-.9.8-1.6,1.1-2.3.8-.7-.3-1-1-1-2.1-.2-1.5-.8-3.1-1.9-5-1.1-1.8-2.2-3.3-3.4-4.4-2.7-2.4-5.6-3.5-8.7-3.2-3,.3-5.9,2-8.7,5-2.6,2.9-3.8,6-3.6,9.1.2,3.1,1.7,5.9,4.5,8.4,1.4,1.2,3,2.2,5,2.9,2,.7,3.9,1,5.8.9,1-.2,1.7,0,2.1.8.4.7.3,1.5-.4,2.4-1.7,2.3-3.3,4.5-5,6.5-.4.5-.8.9-1.4,1.1-.6.2-1.1.2-1.6,0-1.8-.7-3.9-1.9-6.3-3.5-2.4-1.6-4.5-3.2-6.3-4.8Z"/>
    <path class="cls-2" d="M734.4,404.1c-.8-1-1.6-2.4-2.6-4-.3-.5-.3-1-.2-1.5.1-.5.5-1,1-1.4,20.5-15,35.3-25.4,44.4-31,1.1-.7,2-.7,2.7,0,.8.7,1.7,1.8,2.7,3.2,1.1,1.5,2,2.9,2.6,4.1.3.5.3,1,.3,1.5,0,.5-.4.9-.9,1.2-6.9,4-12.1,7.2-15.5,9.6-.8.6-1.1,1-1.1,1.4,0,.4.6.5,1.5.5,3.2,0,5.9.5,8.1,1.6,2.2,1.1,4.2,2.8,5.9,5.1,3,4,3.8,8.5,2.6,13.4-1.2,4.9-4.4,9.4-9.5,13.6-6.9,5.7-12.4,10-16.5,13-.6.4-1.1.6-1.6.5-.5,0-1-.3-1.4-.7-1.2-1.3-2.1-2.3-2.8-3.2-1.2-1.7-2.1-3.1-2.7-4.3-.3-.5-.4-1-.3-1.6,0-.5.4-1,.9-1.3,4.6-2.7,9.6-6.1,15-10.1,3.4-2.7,5.6-5.6,6.5-8.7.9-3.1.4-6-1.6-8.6-1.9-2.6-4.5-3.9-7.8-3.9-3.3,0-6.7,1.2-10.2,3.8-5.8,4.5-10.4,8.3-13.8,11.5-.4.4-.9.6-1.5.6-.6,0-1-.3-1.4-.7-1.1-1.2-2.2-2.4-3.1-3.6Z"/>
    <path class="cls-2" d="M774.4,468.8c-2-2.1-3.7-4.7-5-7.7-1.3-3-2.1-6-2.4-8.9-.3-2.9,0-5.7.9-8.3.8-2.6,2.3-5,4.5-7.3,2.2-2.2,4.9-4.1,8.3-5.6,6.5-2.9,12.6-3.3,18-1.1,5.5,2.2,9.6,6.3,12.4,12.5,1.8,4,2.6,7.9,2.3,11.8-.3,3.8-1.6,7.4-4,10.6-2.4,3.2-5.8,5.8-10.1,7.8-3.3,1.5-6.6,2.3-9.6,2.5-3.1.1-5.9-.3-8.4-1.5-2.5-1.1-4.7-2.7-6.7-4.9ZM778.1,457.2c1.3,3,3.5,5,6.5,5.9s6.4.5,10.2-1.2c3.7-1.6,6.2-3.9,7.5-6.7,1.3-2.8,1.3-5.8,0-8.8-1.4-3-3.5-5-6.5-5.9-3-.9-6.3-.5-10,1.1-3.8,1.7-6.4,4-7.7,6.8-1.3,2.8-1.3,5.7,0,8.7Z"/>
    <path class="cls-2" d="M784.1,505.3c-.6-2.7-1-5.8-1.2-9.3-.2-3.5-.2-6.6,0-9.1.2-1.5,1-2.3,2.4-2.5.9-.1,2.2-.4,3.9-.7,1.7-.3,3.1-.5,3.9-.7,1.1-.2,1.9,0,2.3.8.4.7.3,1.4-.2,2-1.1,2.2-1.9,4.8-2.2,8-.3,3.2-.2,6.1.4,8.8.6,2.8,1.4,4.8,2.4,6,1,1.2,2.2,1.7,3.8,1.3.9-.2,1.6-.9,2.1-2,.5-1.1.8-2.5,1-4.2s.3-3.5.4-5.4c0-2,.3-4,.6-6,.3-2,.7-3.9,1.3-5.7.6-1.8,1.5-3.3,2.8-4.6,1.3-1.3,2.9-2.2,4.8-2.6,2.5-.6,4.9-.2,7.1,1,2.2,1.3,4,3.2,5.5,5.9,1.5,2.7,2.7,5.9,3.6,9.7.5,2.1.8,4.4,1.1,7.1.3,2.7.3,4.9.2,6.8-.2,1.5-.9,2.4-2.2,2.7-1.4.4-3.6.9-6.4,1.5-1.3.3-2.1.1-2.5-.5s-.3-1.3.2-2.1c.7-1.8,1.2-3.9,1.4-6.2.2-2.3,0-4.5-.4-6.6-.5-2.3-1.3-4.2-2.4-5.6-1.1-1.4-2.2-2-3.4-1.7-.9.2-1.5.8-1.9,2-.4,1.1-.7,2.5-.9,4.2-.1,1.7-.3,3.5-.4,5.4,0,2-.3,4-.6,6-.3,2-.8,3.9-1.4,5.7-.6,1.8-1.6,3.3-2.9,4.6-1.3,1.3-3,2.2-4.9,2.6-3.9.9-7.4-.1-10.4-3-3-2.9-5.2-7.4-6.6-13.7Z"/>
    <path class="cls-2" d="M789.6,552.5c-.2-7.3,1.7-13.1,5.6-17.5,4-4.4,9.6-6.7,17-6.9,4.6-.1,8.7.7,12.1,2.5,3.5,1.8,6.1,4.3,7.9,7.5s2.8,6.8,2.9,11c.2,5.9-1,10.6-3.5,14.2-2.5,3.6-6.2,5.4-11.1,5.5-3.9.1-7.2-1.3-9.8-4.3-2.6-3-4-6.6-4.1-10.8-.1-5,.6-9,2.1-12,.5-.8.5-1.4,0-1.8-.5-.4-1.1-.3-1.8.3-2.2,1-4.1,2.9-5.5,5.5-1.4,2.7-2.1,5.4-2,8.3,0,2.1.6,4.4,1.6,6.7,1,2.3,2.2,4.3,3.7,5.8.8.6,1.1,1.2.8,1.9-.2.7-.9,1.1-1.9,1.1-1.3.1-3.8.3-7.3.5-1,0-1.8-.3-2.2-1-1.3-1.8-2.4-4.3-3.1-7.4-.7-3.1-1.2-6.1-1.3-9.2ZM812.8,550.4c0,2.3.7,4.2,1.9,5.5,1.2,1.3,2.8,2,4.8,1.9,4.5-.1,6.7-2.9,6.5-8.2,0-2.7-.9-5-2.5-7-1.6-2-3.7-3-6.2-2.9-1,0-1.9.7-2.7,1.9-.7,1.2-1.2,2.6-1.5,4.2-.3,1.6-.4,3.1-.3,4.7Z"/>
  </g>
  <g>
    <path class="cls-2" d="M388.8,782.4c-1.8-1.3-3.7-3-5.8-5.1-2-2.1-3.7-4-4.9-5.7-.7-1-.6-2,.1-2.8.5-.6,1.2-1.4,2.1-2.5.9-1.1,1.6-2,2.1-2.5.6-.7,1.2-.9,1.8-.8.6.2.9.7.9,1.4.4,2,1.4,4,2.9,6.2,1.5,2.2,3.1,3.9,4.9,5.3,1.9,1.4,3.4,2.2,4.7,2.4,1.3.2,2.3-.2,3.1-1.2.5-.6.6-1.4.3-2.4-.3-1-.8-2-1.6-3.1-.8-1.1-1.7-2.3-2.7-3.6-1-1.3-2-2.6-2.9-4-.9-1.4-1.7-2.8-2.3-4.2-.6-1.4-.8-2.9-.7-4.3.1-1.5.6-2.9,1.6-4.2,1.3-1.7,2.9-2.8,5-3.1,2-.4,4.2-.1,6.6.7,2.4.8,4.9,2.2,7.4,4.1,1.4,1,2.9,2.3,4.5,3.8,1.6,1.5,2.9,2.9,3.8,4.1.7,1.1.7,2,0,2.9-.7,1-1.7,2.5-3.2,4.4-.6.9-1.2,1.2-1.8,1-.6-.2-.9-.6-1-1.4-.5-1.5-1.3-3-2.4-4.6-1.1-1.5-2.4-2.8-3.8-3.9-1.6-1.2-3.1-1.9-4.5-2.2-1.4-.3-2.4,0-3,.8-.4.6-.5,1.3-.2,2.3.3.9.9,2,1.7,3.1.8,1.1,1.7,2.3,2.7,3.6,1,1.3,2,2.6,2.9,4.1.9,1.4,1.6,2.8,2.2,4.3.6,1.4.8,2.9.7,4.4-.1,1.5-.7,3-1.7,4.3-2,2.6-4.7,3.9-8.1,3.7-3.4-.2-7.2-1.8-11.5-5Z"/>
    <path class="cls-2" d="M414.4,799.1c-1.5-.9-2.6-1.6-3.1-2.2-.3-.3-.5-.7-.6-1.1,0-.4,0-.9.3-1.3,7.3-12.2,13.2-21.5,17.5-27.8.3-.5.6-.7.9-.8.3,0,.7,0,1.1.1.8.3,1.8.8,2.9,1.4,1,.6,1.8,1.2,2.3,1.7.4.3.6.7.6,1,0,.3,0,.7-.3,1.2-3.5,6.8-8.9,16.4-16.3,28.7-.5.9-1.3,1.1-2.2.8-1-.4-2.1-.9-3.3-1.6ZM434.9,764.5c-1.4-.8-2.3-1.9-2.8-3.2-.4-1.3-.3-2.6.4-3.7.7-1.2,1.8-1.9,3.1-2.1,1.4-.2,2.8,0,4.2.9,1.4.9,2.4,1.9,2.8,3.3.5,1.3.3,2.6-.4,3.8-.7,1.2-1.7,1.9-3.1,2.1-1.4.2-2.8,0-4.2-.9Z"/>
    <path class="cls-2" d="M432.4,809.2c-1.5-.6-2.6-1.2-3.4-1.8-.4-.2-.6-.6-.7-1-.1-.4,0-.9.2-1.4,3.4-7.8,6-13.7,7.9-17.5,1.8-3.9,3.9-7.9,6.3-12.1.5-.9,1.2-1.2,2-1,.8.2,1.9.5,3.2,1.1,1.2.5,2.3,1.1,3.3,1.7.4.3.7.6.8,1s0,.8-.3,1.2c-.8.9-1.4,1.8-1.9,2.8-.3.7-.4,1.1-.2,1.3.2.2.6,0,1.3-.4,2.3-1.3,4.4-2.1,6.4-2.2,2-.1,4.1.2,6.3,1.2,3.8,1.6,6.2,4.5,7.4,8.4,1.2,4,.8,8.5-1.2,13.6-2.1,5.7-4.3,11-6.5,16.1-.4,1-1.2,1.4-2.2,1.1-1-.2-2-.6-3.3-1.1-1.4-.6-2.6-1.2-3.6-1.8-.9-.7-1.2-1.5-.7-2.4,2.4-4.3,4.6-8.8,6.5-13.4,1.4-3.3,1.7-6.3,1.1-8.8-.6-2.6-2.2-4.4-4.7-5.5-2.4-1.1-4.8-.9-7.2.4-2.4,1.3-4.3,3.6-5.7,6.9-2.3,5.6-4,10.2-5.1,13.9-.1.5-.4.8-.8,1-.4.2-.9.2-1.3,0-.9-.2-2.1-.6-3.7-1.3Z"/>
    <path class="cls-2" d="M489.6,830.1c-5.5-1.4-9.5-4.1-12-8.2-2.5-4-3-8.9-1.5-14.5,1.4-5.6,4.2-9.7,8.4-12.1,4.2-2.4,8.9-3,14.3-1.6,1.9.5,3.8,1.1,5.8,2,2,.8,3.5,1.6,4.6,2.4.4.3.7.7.9,1.2.2.5.2.9,0,1.3,0,.2-.3,1.1-.8,2.6-.5,1.5-.8,2.6-1.1,3.4-.3.9-.8,1.4-1.4,1.4-.6,0-1.1-.3-1.5-1.2-.7-1-1.8-2-3.3-2.9-1.5-.9-2.9-1.6-4.2-1.9-2.9-.7-5.4-.4-7.6.9-2.1,1.4-3.6,3.7-4.4,7-.8,3.1-.5,5.8.8,8,1.3,2.2,3.5,3.7,6.5,4.5,1.5.4,3,.5,4.8.2,1.7-.2,3.2-.7,4.6-1.5.7-.5,1.3-.6,1.8-.2.6.4.8,1,.6,1.9-.4,2.3-.8,4.5-1.2,6.7,0,.5-.3,1-.6,1.3-.3.4-.7.6-1.1.7-1.6.2-3.6,0-5.9-.2-2.4-.3-4.5-.7-6.5-1.2Z"/>
    <path class="cls-2" d="M530.6,837c-6-.6-10.5-2.8-13.7-6.5-3.2-3.7-4.4-8.6-3.8-14.6.4-3.8,1.5-7,3.3-9.6,1.8-2.6,4.1-4.5,6.9-5.6,2.8-1.1,5.9-1.5,9.3-1.2,4.8.5,8.5,2,11.2,4.4,2.6,2.4,3.7,5.7,3.3,9.7-.3,3.2-1.8,5.7-4.6,7.5-2.7,1.8-5.8,2.5-9.2,2.2-4.1-.4-7.3-1.4-9.6-3-.6-.5-1.1-.6-1.5-.2s-.3.8,0,1.5c.6,1.9,1.9,3.6,3.9,5.1,2,1.5,4.2,2.3,6.5,2.5,1.7.2,3.6,0,5.6-.6,2-.6,3.7-1.3,5.1-2.4.6-.6,1.1-.7,1.7-.5.5.3.8.8.7,1.7,0,1.1-.2,3.1-.4,6.1,0,.8-.4,1.4-1,1.7-1.6.9-3.8,1.5-6.3,1.8-2.6.3-5.1.3-7.7,0ZM531.4,817.9c1.9.2,3.5-.1,4.7-1,1.2-.8,1.9-2.1,2.1-3.7.4-3.7-1.6-5.8-6-6.2-2.2-.2-4.2.2-6,1.3-1.8,1.1-2.8,2.7-3.1,4.8,0,.8.3,1.6,1.3,2.4.9.7,2,1.3,3.3,1.7,1.3.4,2.5.7,3.8.8Z"/>
    <path class="cls-2" d="M597.6,835.1c-9.1,1.4-14.4,2.1-16.1,2.2-1.2,0-2-.2-2.6-.7-.6-.5-.9-1.3-1.1-2.5l-.7-4.8c-.3-1.7-.2-3.4.3-4.9.4-1.6,1.2-3,2.1-4.3,1-1.3,2.1-2.5,3.4-3.7,1.3-1.2,2.7-2.3,4.2-3.3,1.5-1,3-2,4.5-3,1.5-1,3-1.9,4.3-2.8,1.4-.9,2.5-1.8,3.6-2.6,1-.9,1.8-1.7,2.4-2.7.5-.9.7-1.8.6-2.8-.2-1.5-1.3-2.5-3.1-3-1.8-.5-4.1-.6-6.7-.2-2.5.4-5,1.4-7.4,3-2.5,1.6-4.4,3.5-5.9,5.6-.4.7-.9.9-1.6.7-.7-.2-1.1-.7-1.2-1.6-.4-3.4-.7-6.3-.9-8.8,0-.9.2-1.6.9-2.1,1.9-1.2,4.3-2.3,7-3.2,2.7-.9,5.4-1.6,8-2,3.8-.6,7.2-.6,10.2-.2,3,.4,5.5,1.5,7.5,3.1,2,1.6,3.2,3.8,3.6,6.4.2,1.6.1,3.1-.3,4.7-.5,1.5-1.2,2.9-2.1,4.1-1,1.2-2.1,2.4-3.4,3.5-1.3,1.1-2.7,2.2-4.2,3.2-1.5,1-3,1.9-4.5,2.8-1.5.9-3,1.8-4.3,2.6-1.4.8-2.6,1.7-3.6,2.4-1,.8-1.8,1.6-2.4,2.4-.6.8-.8,1.6-.7,2.4.2,1.1,1.1,1.8,2.9,2.1,1.8.2,4.7,0,8.9-.6,3.5-.5,6.5-1.5,8.8-2.8,2.4-1.3,4.4-3.2,6.2-5.7.4-.7.9-1,1.6-.8.7.1,1.1.7,1.3,1.6l2.2,10.6c0,.5,0,1-.2,1.4-.2.4-.6.7-1.2.8-3.4.7-10.1,1.8-20,3.3Z"/>
    <path class="cls-2" d="M650,822.5c-6.3,2.2-11.8,2-16.7-.5-4.9-2.5-8.5-7.3-11-14.4-2.5-7.3-2.7-13.6-.6-19.1,2.2-5.4,6.3-9.2,12.5-11.4,6.2-2.2,11.9-1.8,17,1.1,5.1,2.9,8.9,8,11.4,15.3,2.5,7.2,2.6,13.2.3,18.2-2.3,5-6.6,8.5-12.9,10.7ZM638.5,813.3c2.7,1.8,5.6,2.1,8.7,1,3.2-1.1,5.2-3.2,6.2-6.2,1-3.1.7-6.9-.9-11.5-1.6-4.6-3.8-7.9-6.5-10-2.7-2-5.7-2.5-8.9-1.4-3.2,1.1-5.2,3.3-6.1,6.6-.9,3.3-.5,7.2,1.1,11.9,1.6,4.6,3.7,7.8,6.4,9.6Z"/>
    <path class="cls-2" d="M690.5,804.5c-1.8.9-3.1,1.5-3.9,1.8-.5.1-.9,0-1.3,0-.4-.2-.7-.5-.9-.9-1.5-4-3.6-8.8-6.2-14.4-2.6-5.6-5-10.4-7.3-14.5-.7-1.2-1.3-2.1-1.9-2.4-.6-.4-1.2-.4-1.9,0-1.3.7-2.5,1.9-3.6,3.7-.3.6-.8.8-1.4.8-.6,0-1.1-.3-1.4-1-.3-.6-.9-1.6-1.7-2.9-.8-1.4-1.4-2.3-1.6-2.8-.2-.4-.3-.8-.2-1.2,0-.4.3-.8.6-1.1,1.3-1.1,3-2.3,5.1-3.7,2.1-1.4,3.6-2.3,4.6-2.8,1.9-1,3.2-1.6,4.1-1.8.4-.1.8-.1,1.2,0,.4.1.7.4.9.8,4.8,7.7,11.8,20.4,21.1,38.2.2.4.3.8.2,1.2-.1.4-.3.8-.7,1-1,.7-2.3,1.5-3.7,2.2Z"/>
    <path class="cls-2" d="M722.1,785.2c-5.4,3.9-10.8,5.3-16.1,4.3-5.4-1-10.3-4.6-14.7-10.7-4.5-6.3-6.5-12.3-6-18.1.5-5.8,3.5-10.6,8.8-14.5,5.4-3.9,10.9-5.1,16.6-3.7,5.7,1.4,10.8,5.2,15.3,11.4,4.4,6.2,6.2,11.9,5.5,17.3-.8,5.4-3.9,10.1-9.3,14ZM708.4,779.6c3.1,1,6,.5,8.7-1.5,2.7-1.9,4.1-4.5,4.2-7.7s-1.3-6.8-4.2-10.8c-2.9-4-5.9-6.5-9.1-7.7-3.2-1.2-6.2-.8-8.9,1.2-2.7,2-4.1,4.7-4,8,0,3.4,1.6,7.1,4.4,11.1,2.9,4,5.8,6.4,8.9,7.4Z"/>
  </g>
  <path class="cls-2" d="M557.2,756.6c-111.5,0-202.3-90.7-202.3-202.3s90.7-202.3,202.3-202.3,202.3,90.7,202.3,202.3-90.7,202.3-202.3,202.3ZM557.2,362c-106,0-192.3,86.3-192.3,192.3s86.3,192.3,192.3,192.3,192.3-86.3,192.3-192.3-86.3-192.3-192.3-192.3Z"/>
  <g>
    <text class="cls-1" transform="translate(588 658.8)"><tspan x="0" y="0">®</tspan></text>
    <path class="cls-2" d="M652,452.4c-15.3-15.1-39.5-23.3-68.3-23.1-24.9.1-51.1,6.7-69.9,17.6-43.2,24.9-62.9,61.8-58.3,109.7l16.1-1.2c-4-42.1,13.1-74.5,50.9-96.3,16.3-9.4,39.3-15.1,61.3-15.3.3,0,.5,0,.8,0,23.8,0,43.5,6.5,55.5,18.4,13.9,13.7,14.3,30,12.3,41.4-2.7,15-11.5,29.8-23.9,40.6-21.7,18.7-51.1,28.4-90.6,29.4,0-.8-.2-1.6-.2-2.4-2.3-23.3-4.5-45.3,9.8-62.5,6.5-7.8,22-11.7,32.6-8.2,6.7,2.2,9.8,6.8,9.2,14.1l16.1,1c1-13.5-6.4-24.2-19.7-28.6-17.3-5.8-40.3.1-51.1,13.2-18,21.6-15.4,47.4-13,72.4,0,.4,0,.7.1,1.1-10.6-.3-21.9-1.2-33.9-2.6l-2.1,14.3c11.3,1.3,24,2.5,37.2,2.8.4,7.2.4,14-.5,20.5-5.7,38.4-42.5,49-72.4,51.1l1.3,14.4c50.6-3.6,81.6-26.2,87.1-63.6,1.1-7.3,1.1-14.8.7-22.4,34.7-1,71.9-8.7,100.6-33.5,14.9-12.9,25.3-30.6,28.6-48.6,3.7-20.5-2-39.4-16.2-53.4Z"/>
  </g>
</svg>